<?xml version="1.0" encoding="utf-8"?>
<!-- Generator: Adobe Illustrator 16.0.0, SVG Export Plug-In . SVG Version: 6.00 Build 0)  -->
<!DOCTYPE svg PUBLIC "-//W3C//DTD SVG 1.1//EN" "http://www.w3.org/Graphics/SVG/1.1/DTD/svg11.dtd">
<svg version="1.1" id="Layer_1" xmlns="http://www.w3.org/2000/svg" xmlns:xlink="http://www.w3.org/1999/xlink" x="0px" y="0px"
	 width="796.035px" height="565.511px" viewBox="561.982 257.245 796.035 565.511"
	 enable-background="new 561.982 257.245 796.035 565.511" xml:space="preserve">
<g>
	<g>
		<path fill="#FFFFFF" stroke="#FFFFFF" stroke-width="3" stroke-miterlimit="10" d="M752.581,822.756v-94.641
			c-110.674-22.3-190.599-119.678-190.599-232.979c0-131.173,106.718-237.891,237.892-237.891h320.253
			c131.174,0,237.891,106.718,237.891,237.891c0,131.164-106.717,237.863-237.891,237.863H903.8L752.581,822.756z M799.883,266.339
			c-126.162,0-228.796,102.634-228.796,228.796c0,110.183,78.597,204.704,186.878,224.749l3.721,0.691v86.209l139.631-82.871
			h218.828c126.163,0,228.797-102.625,228.797-228.77c0-126.162-102.635-228.796-228.797-228.796H799.883V266.339z"/>
	</g>
	<g>
		<circle fill="#FFFFFF" cx="1114.113" cy="421.793" r="34.054"/>
	</g>
	<g>
		<path fill="#FFFFFF" d="M868.153,521.886h-33.525v33.479c0,18.259-14.777,33.027-33.02,33.027
			c-18.205,0-33.026-14.769-33.026-33.027v-33.479h-33.525c-18.213,0-32.982-14.784-32.982-33.049
			c0-18.221,14.769-32.989,32.982-32.989h33.525v-33.563c0-18.206,14.821-32.989,33.026-32.989c18.243,0,33.02,14.783,33.02,32.989
			v33.563h33.525c18.251,0,33.026,14.769,33.026,32.989C901.18,507.102,886.404,521.886,868.153,521.886z"/>
	</g>
	<g>
		<circle fill="#FFFFFF" cx="1047.811" cy="488.066" r="34.054"/>
	</g>
	<g>
		<path fill="#FFFFFF" d="M1114.113,588.393c-18.817,0-34.031-15.237-34.031-34.031c0-18.788,15.214-34.047,34.031-34.047
			c18.779,0,34.039,15.259,34.039,34.047C1148.152,573.155,1132.9,588.393,1114.113,588.393z"/>
	</g>
	<g>
		<path fill="#FFFFFF" d="M1180.394,522.12c-18.78,0-34.039-15.244-34.039-34.047c0-18.794,15.259-34.069,34.039-34.069
			c18.84,0,34.031,15.268,34.031,34.069C1214.425,506.883,1199.233,522.12,1180.394,522.12z"/>
	</g>
</g>
</svg>
